<svg width="322" height="103" viewBox="0 0 322 103" fill="none" xmlns="http://www.w3.org/2000/svg">
<mask id="mask0_310_268" style="mask-type:luminance" maskUnits="userSpaceOnUse" x="131" y="51" width="191" height="32">
<path d="M321.026 51.3228L131.076 51.9688L131.126 82.0555L321.076 81.4096L321.026 51.3228Z" fill="white"/>
</mask>
<g mask="url(#mask0_310_268)">
<path d="M135.115 66.8555L135.105 60.5361L129.816 51.2031L133.858 51.1878L136.89 56.9508L139.869 51.1649L143.932 51.1495L138.692 60.5225L138.701 66.8419L135.115 66.8555Z" fill="white"/>
<path d="M143.412 59.0148C143.405 54.2408 146.59 50.8941 150.841 50.878C155.091 50.8618 158.271 54.1843 158.278 58.9583C158.285 63.7323 155.122 67.0789 150.864 67.0951C146.607 67.1112 143.419 63.7889 143.412 59.0148ZM154.627 58.9722C154.623 56.4103 153.141 54.4478 150.846 54.4565C148.551 54.4652 147.053 56.4472 147.057 59.001C147.06 61.5547 148.543 63.5254 150.859 63.5166C153.176 63.5078 154.63 61.5015 154.627 58.9722Z" fill="white"/>
<path d="M160.079 60.4505L160.066 51.1211L163.71 51.1072L163.724 60.2903C163.727 62.1529 164.71 63.4831 166.673 63.4756C168.636 63.4682 169.587 62.1225 169.584 60.268L169.571 51.0849L173.194 51.0712L173.207 60.3762C173.213 64.2804 171.11 67.0376 166.671 67.0545C162.233 67.0714 160.078 64.306 160.072 60.4506L160.079 60.4505Z" fill="white"/>
<path d="M175.714 66.7512L175.691 51.0762L182.657 51.0497C185.789 51.0378 187.496 53.4066 187.5 56.2536C187.504 59.1007 185.797 61.458 182.672 61.4699L179.294 61.4827L179.301 66.7457L175.714 66.7593L175.714 66.7512ZM183.848 56.2594C183.846 55.1775 183.138 54.5701 182.178 54.5737L179.277 54.5848L179.281 57.9443L182.183 57.9333C183.143 57.9296 183.849 57.3168 183.848 56.2594Z" fill="white"/>
<path d="M196.865 66.6865L194.526 61.4324L192.692 61.4394L192.7 66.7023L189.113 66.716L189.09 51.041L196.055 51.0145C199.144 51.0028 200.894 53.2982 200.898 56.2185C200.902 58.9435 199.425 60.4051 198.134 60.9306L200.979 66.679L196.865 66.6946L196.865 66.6865ZM197.246 56.1998C197.245 55.1423 196.45 54.5352 195.512 54.5388L192.675 54.5496L192.68 57.9091L195.516 57.8983C196.455 57.8947 197.248 57.306 197.246 56.1998Z" fill="white"/>
<path d="M205.627 60.2336C205.62 55.4595 208.805 52.1129 213.056 52.0967C217.306 52.0806 220.486 55.403 220.493 60.1771C220.5 64.9511 217.337 68.2976 213.079 68.3138C208.821 68.33 205.634 65.0076 205.627 60.2336ZM216.842 60.1909C216.838 57.6291 215.356 55.6665 213.061 55.6752C210.766 55.684 209.268 57.666 209.271 60.2197C209.275 62.7735 210.757 64.7441 213.074 64.7353C215.39 64.7265 216.845 62.7203 216.842 60.1909Z" fill="#2792D0"/>
<path d="M223.453 58.7968C223.446 53.9572 226.696 50.6751 230.969 50.6589C234.325 50.6461 236.118 52.7785 237.045 54.8409L233.958 56.4956C233.494 55.2529 232.302 54.2245 230.974 54.2296C228.701 54.2382 227.101 56.2208 227.105 58.7747C227.109 61.3287 228.721 63.2991 230.987 63.2904C232.322 63.2854 233.504 62.2479 233.965 61.0017L237.056 62.6329C236.164 64.6616 234.348 66.8484 230.992 66.8611C226.72 66.8774 223.46 63.6037 223.453 58.7805L223.453 58.7968Z" fill="white"/>
<path d="M237.869 58.759C237.862 53.9849 241.047 50.6383 245.298 50.6221C249.548 50.6059 252.728 53.9284 252.735 58.7024C252.742 63.4765 249.579 66.823 245.321 66.8392C241.064 66.8554 237.876 63.533 237.869 58.759ZM249.084 58.7163C249.08 56.1545 247.598 54.1919 245.303 54.2006C243.008 54.2093 241.51 56.1914 241.514 58.7451C241.517 61.2989 243 63.2695 245.316 63.2607C247.633 63.2519 249.088 61.2457 249.084 58.7163Z" fill="white"/>
<path d="M264.011 66.501L258.116 57.4542L258.129 66.5234L254.542 66.5371L254.52 50.8633L258.208 50.8492L263.849 59.4496L263.837 50.8278L267.446 50.8141L267.468 66.4879L264.004 66.501L264.011 66.501Z" fill="white"/>
<path d="M273.073 66.4829L273.055 54.3379L269.157 54.3527L269.152 50.8223L280.521 50.779L280.526 54.3094L276.65 54.3242L276.667 66.4692L273.08 66.4829L273.073 66.4829Z" fill="white"/>
<path d="M290.383 66.4288L289.694 64.1787L284.209 64.1996L283.527 66.4549L279.464 66.4703L284.673 50.7789L289.176 50.7618L294.453 66.4134L290.39 66.4288L290.383 66.4288ZM286.923 54.7635L285.157 60.6664L288.7 60.6529L286.916 54.7636L286.923 54.7635Z" fill="white"/>
<path d="M294.07 58.6073C294.063 53.7678 297.314 50.4857 301.586 50.4694C304.942 50.4566 306.735 52.589 307.662 54.6514L304.575 56.3061C304.111 55.0634 302.919 54.035 301.591 54.0401C299.318 54.0487 297.718 56.0313 297.722 58.5853C297.726 61.1392 299.338 63.1096 301.604 63.1009C302.94 63.0959 304.122 62.0584 304.582 60.8122L307.673 62.4434C306.781 64.4721 304.966 66.6588 301.61 66.6716C297.337 66.6879 294.077 63.4143 294.07 58.591L294.07 58.6073Z" fill="white"/>
<path d="M312.321 66.3775L312.303 54.2324L308.406 54.2473L308.4 50.7168L319.769 50.6736L319.774 54.204L315.898 54.2188L315.916 66.3638L312.328 66.3774L312.321 66.3775Z" fill="white"/>
<path d="M213.248 65.9708C216.178 65.9596 218.548 63.2748 218.543 59.9727C218.538 56.6706 216.16 54.0039 213.23 54.015C210.3 54.0261 207.93 56.711 207.934 60.013C207.939 63.3151 210.318 65.9819 213.248 65.9708Z" fill="#2792D0"/>
<path d="M135.134 78.6416L135.718 77.7202C136.072 78.1337 136.621 78.4813 137.314 78.4787C137.898 78.4765 138.187 78.1663 138.186 77.849C138.185 76.8485 135.291 77.5428 135.288 75.4115C135.287 74.4678 136.008 73.6842 137.191 73.6797C137.993 73.6766 138.657 73.9506 139.156 74.4612L138.565 75.3421C138.153 74.9206 137.612 74.7274 137.099 74.7294C136.637 74.7311 136.385 74.9599 136.385 75.3015C136.387 76.2045 139.28 75.5916 139.283 77.7066C139.285 78.7478 138.629 79.5313 137.272 79.5364C136.305 79.5401 135.611 79.1766 135.141 78.6415L135.134 78.6416Z" fill="#2792D0"/>
<path d="M145.436 79.4064L143.91 77.1427L143.521 77.6729L143.524 79.4136L142.456 79.4177L142.447 73.748L143.515 73.744L143.519 76.2819L145.298 73.7372L146.619 73.7322L144.624 76.3997L146.764 79.4013L145.436 79.4064Z" fill="#2792D0"/>
<path d="M149.688 79.3998L149.68 73.7266L150.751 73.7225L150.759 79.3957L149.688 79.3998Z" fill="#2792D0"/>
<path d="M154.193 79.3857L154.185 73.7148L155.253 73.7108L155.26 78.3239L157.39 78.3158L157.392 79.3817L154.186 79.3939L154.193 79.3857Z" fill="#2792D0"/>
<path d="M160.584 79.3701L160.576 73.6992L161.644 73.6951L161.651 78.3083L163.781 78.3002L163.782 79.366L160.577 79.3782L160.584 79.3701Z" fill="#2792D0"/>
<path d="M166.632 78.5556L167.216 77.6342C167.57 78.0477 168.119 78.3954 168.812 78.3928C169.397 78.3905 169.685 78.0804 169.684 77.7631C169.683 76.7625 166.789 77.4568 166.786 75.3255C166.785 74.3819 167.506 73.5982 168.689 73.5937C169.491 73.5907 170.155 73.8647 170.654 74.3753L170.063 75.2561C169.651 74.8347 169.11 74.6415 168.597 74.6434C168.135 74.6452 167.883 74.8739 167.883 75.2156C167.885 76.1186 170.778 75.5056 170.781 77.6207C170.783 78.6619 170.127 79.4453 168.77 79.4505C167.803 79.4542 167.109 79.0907 166.639 78.5556L166.632 78.5556Z" fill="#2792D0"/>
<path d="M173.944 79.3326L173.936 73.6621L177.495 73.6486L177.496 74.7143L175.006 74.7238L175.007 75.9197L177.447 75.9105L177.449 76.9762L175.009 76.9855L175.011 78.2709L177.501 78.2615L177.503 79.3272L173.944 79.3407L173.944 79.3326Z" fill="#2792D0"/>
<path d="M181.944 79.3093L181.937 74.6968L180.464 74.7024L180.463 73.6367L184.476 73.6215L184.478 74.6871L183.012 74.6927L183.019 79.3052L181.936 79.3093L181.944 79.3093Z" fill="#2792D0"/>
<path d="M195.465 79.2706L195.153 78.3121L192.995 78.3203L192.679 79.2812L191.459 79.2858L193.4 73.6098L194.742 73.6047L196.691 79.2659L195.472 79.2706L195.465 79.2706ZM194.073 74.819L193.289 77.2619L194.855 77.2559L194.065 74.819L194.073 74.819Z" fill="#2792D0"/>
<path d="M199.203 78.4677L199.786 77.5463C200.14 77.9599 200.689 78.3075 201.382 78.3049C201.967 78.3027 202.255 77.9925 202.255 77.6752C202.253 76.6746 199.36 77.369 199.357 75.2376C199.355 74.294 200.076 73.5103 201.26 73.5058C202.061 73.5028 202.725 73.7768 203.224 74.2874L202.634 75.1682C202.222 74.7468 201.68 74.5536 201.167 74.5556C200.705 74.5573 200.453 74.7861 200.454 75.1277C200.455 76.0307 203.349 75.4177 203.352 77.5328C203.353 78.574 202.697 79.3574 201.34 79.3626C200.373 79.3663 199.68 79.0028 199.21 78.4677L199.203 78.4677Z" fill="#2792D0"/>
<path d="M214.359 79.2198L214.047 78.2613L211.89 78.2695L211.574 79.2304L210.354 79.2351L212.294 73.559L213.636 73.5539L215.586 79.2152L214.366 79.2198L214.359 79.2198ZM212.967 74.7682L212.184 77.2111L213.75 77.2051L212.96 74.7683L212.967 74.7682Z" fill="#2792D0"/>
<path d="M222.525 78.4052L223.108 77.4838C223.462 77.8974 224.012 78.245 224.704 78.2424C225.289 78.2402 225.577 77.93 225.577 77.6127C225.575 76.6121 222.682 77.3065 222.679 75.1751C222.678 74.2315 223.398 73.4478 224.582 73.4433C225.383 73.4403 226.048 73.7143 226.546 74.2249L225.956 75.1057C225.544 74.6843 225.002 74.4911 224.49 74.4931C224.028 74.4948 223.775 74.7236 223.776 75.0652C223.777 75.9682 226.671 75.3552 226.674 77.4703C226.675 78.5115 226.02 79.2949 224.663 79.3001C223.695 79.3038 223.002 78.9403 222.532 78.4052L222.525 78.4052Z" fill="#2792D0"/>
<path d="M229.836 79.1822L229.828 73.5117L233.387 73.4982L233.389 74.5639L230.898 74.5734L230.9 75.7694L233.34 75.7601L233.341 76.8258L230.901 76.8351L230.903 78.1205L233.394 78.1111L233.395 79.1768L229.836 79.1903L229.836 79.1822Z" fill="#2792D0"/>
<path d="M239.524 79.1513L238.532 77.1458L237.745 77.1487L237.748 79.158L236.68 79.1621L236.672 73.4922L239.025 73.4832C240.079 73.4792 240.715 74.2496 240.717 75.3071C240.718 76.3646 240.163 76.8467 239.615 76.9952L240.751 79.1548L239.524 79.1594L239.524 79.1513ZM239.627 75.3113C239.626 74.8395 239.301 74.5478 238.875 74.5495L237.749 74.5537L237.751 76.0831L238.877 76.0788C239.303 76.0772 239.627 75.7912 239.627 75.3113Z" fill="#2792D0"/>
<path d="M245.306 79.1378L243.35 73.4766L244.569 73.4719L245.968 77.8259L247.348 73.4614L248.567 73.4567L246.634 79.1328L245.299 79.1378L245.306 79.1378Z" fill="#2792D0"/>
<path d="M251.5 79.1224L251.492 73.4492L252.563 73.4452L252.572 79.1184L251.5 79.1224Z" fill="#2792D0"/>
<path d="M255.764 76.2801C255.762 74.5394 256.929 73.3393 258.437 73.3336C259.549 73.3293 260.192 74.0102 260.547 74.7083L259.624 75.2243C259.414 74.7614 258.959 74.4053 258.439 74.4072C257.522 74.4107 256.859 75.2022 256.861 76.2759C256.863 77.3496 257.528 78.136 258.444 78.1326C258.964 78.1306 259.418 77.771 259.627 77.3065L260.551 77.8073C260.192 78.5163 259.557 79.202 258.446 79.2062C256.938 79.212 255.767 78.0288 255.764 76.2801Z" fill="#2792D0"/>
<path d="M263.635 79.0904L263.627 73.4199L267.186 73.4064L267.187 74.4721L264.697 74.4816L264.699 75.6776L267.139 75.6683L267.14 76.734L264.7 76.7433L264.702 78.0287L267.193 78.0193L267.194 79.085L263.635 79.0985L263.635 79.0904Z" fill="#2792D0"/>
<path d="M275.857 80.7483C275.125 79.8232 274.66 78.3681 274.658 76.9926C274.656 75.6171 275.117 74.1666 275.846 73.2279L276.454 73.7302C275.949 74.7739 275.697 75.7109 275.699 76.9806C275.701 78.2502 275.955 79.1934 276.463 80.2088L275.856 80.7402L275.857 80.7483Z" fill="#2792D0"/>
<path d="M279.193 78.2509L279.776 77.3295C280.13 77.7431 280.679 78.0907 281.372 78.0881C281.957 78.0859 282.245 77.7757 282.245 77.4584C282.243 76.4578 279.35 77.1522 279.347 75.0208C279.345 74.0772 280.066 73.2935 281.25 73.289C282.051 73.286 282.716 73.56 283.214 74.0706L282.624 74.9514C282.212 74.53 281.67 74.3368 281.158 74.3388C280.696 74.3405 280.443 74.5693 280.444 74.9109C280.445 75.8139 283.339 75.2009 283.342 77.316C283.343 78.3572 282.688 79.1407 281.331 79.1458C280.363 79.1495 279.67 78.786 279.2 78.2509L279.193 78.2509Z" fill="#2792D0"/>
<path d="M286.16 78.2314L286.743 77.31C287.097 77.7235 287.646 78.0712 288.339 78.0686C288.924 78.0663 289.212 77.7561 289.212 77.4389C289.21 76.4383 286.317 77.1326 286.314 75.0013C286.312 74.0577 287.033 73.274 288.217 73.2695C289.018 73.2665 289.682 73.5405 290.181 74.0511L289.591 74.9319C289.179 74.5105 288.637 74.3173 288.124 74.3192C287.662 74.321 287.41 74.5497 287.411 74.8914C287.412 75.7943 290.306 75.1814 290.309 77.2964C290.31 78.3377 289.654 79.1211 288.297 79.1263C287.33 79.13 286.637 78.7665 286.167 78.2314L286.16 78.2314Z" fill="#2792D0"/>
<path d="M296.867 78.9952L296.555 78.0367L294.398 78.0449L294.081 79.0058L292.862 79.0104L294.802 73.3344L296.144 73.3293L298.094 78.9906L296.874 78.9952L296.867 78.9952ZM295.475 74.5436L294.692 76.9865L296.258 76.9805L295.468 74.5437L295.475 74.5436Z" fill="#2792D0"/>
<path d="M304.467 78.9757L304.155 78.0172L301.997 78.0254L301.681 78.9863L300.461 78.9909L302.402 73.3149L303.744 73.3098L305.693 78.971L304.474 78.9757L304.467 78.9757ZM303.075 74.5241L302.291 76.967L303.857 76.961L303.067 74.5241L303.075 74.5241Z" fill="#2792D0"/>
<path d="M308.204 78.1709L308.788 77.2494C309.142 77.663 309.691 78.0106 310.384 78.008C310.969 78.0058 311.257 77.6956 311.257 77.3783C311.255 76.3778 308.362 77.0721 308.359 74.9408C308.357 73.9971 309.078 73.2134 310.262 73.2089C311.063 73.2059 311.727 73.4799 312.226 73.9905L311.636 74.8714C311.223 74.4499 310.682 74.2567 310.169 74.2587C309.707 74.2604 309.455 74.4892 309.456 74.8308C309.457 75.7338 312.35 75.1208 312.354 77.2359C312.355 78.2771 311.699 79.0606 310.342 79.0657C309.375 79.0694 308.682 78.7059 308.212 78.1708L308.204 78.1709Z" fill="#2792D0"/>
<path d="M315.145 80.1219C315.664 79.1026 315.916 78.1656 315.914 76.8878C315.912 75.61 315.658 74.675 315.136 73.6433L315.742 73.1364C316.481 74.0695 316.953 75.5165 316.955 76.892C316.957 78.2675 316.489 79.7261 315.753 80.6567L315.145 80.1301L315.145 80.1219Z" fill="#2792D0"/>
</g>
<mask id="mask1_310_268" style="mask-type:luminance" maskUnits="userSpaceOnUse" x="0" y="0" width="122" height="103">
<path d="M120.911 0.00113489L0.078125 0.447266L0.217801 102.93L121.05 102.484L120.911 0.00113489Z" fill="white"/>
</mask>
<g mask="url(#mask1_310_268)">
<path d="M114.645 37.21L110.135 37.2284C103.901 15.7813 84.0244 0.151856 60.4989 0.247793C36.9735 0.343729 17.1329 16.1244 10.9383 37.633L6.42794 37.6513C2.96672 37.6655 0.136115 40.504 0.140108 43.9569L0.158714 60.0451C0.162708 63.4979 2.99985 66.3133 6.46107 66.2992L13.1888 66.2718C13.1888 66.2718 13.1889 66.3042 13.2105 66.3257L18.8025 66.3029C18.8025 66.3029 18.8025 66.2705 18.7808 66.249C17.2289 61.7558 16.3797 56.9469 16.3739 51.9294C16.3457 27.5868 36.0951 7.78172 60.4967 7.68221C84.8983 7.5827 104.693 27.2265 104.721 51.5691C104.727 56.5866 103.889 61.4132 102.348 65.9082L114.667 65.858C118.129 65.8438 120.959 63.0053 120.955 59.5525L120.937 43.4643C120.933 40.0114 118.096 37.196 114.634 37.2101L114.645 37.21Z" fill="#2792D0"/>
<path d="M61.974 81.2878C66.5417 80.491 68.812 77.7584 68.7849 73.0465L68.7434 65.2871C66.5698 67.3385 62.7819 68.3915 57.4122 68.4458C52.0208 68.4894 47.7102 66.9076 44.4479 63.6895C41.1963 60.4823 39.5453 55.7122 39.5271 49.3792L39.3979 21.897C29.9004 28.6146 23.7098 39.6848 23.7675 52.1669C23.8531 69.9552 36.5799 84.6985 53.4183 87.9692C53.6991 87.4169 54.0016 86.8645 54.3366 86.3443C56.0765 83.6895 58.6404 82.0039 61.974 81.277L61.974 81.2878Z" fill="white"/>
<path d="M97.3775 51.6564C97.3203 39.6783 91.5332 29.0964 82.6194 22.4517C79.3485 23.4921 77.7044 25.9096 77.7197 29.7474L77.9326 73.3574C77.9593 77.714 77.0207 81.1449 75.1167 83.65C73.7644 85.4393 71.6965 86.7883 68.9348 87.7401C85.3016 83.8679 97.4627 69.1588 97.3775 51.6781L97.3775 51.6564Z" fill="#2792D0"/>
<path d="M51.07 56.7524C52.6422 58.5078 55.0798 59.3734 58.3935 59.3491C61.7071 59.3356 64.2293 58.439 66.0032 56.6915C67.7664 54.9441 68.64 51.8924 68.6133 47.5257L68.5281 30.059C68.5238 26.3083 69.4296 23.0295 71.2998 20.19C71.9808 19.1496 72.792 18.2599 73.7224 17.5103C69.5839 15.9383 65.078 15.0812 60.3782 15.122C56.2307 15.1605 52.2464 15.8793 48.5336 17.1699L48.6771 47.6827C48.7037 51.9737 49.4977 54.997 51.07 56.7524Z" fill="white"/>
<path d="M52.6367 102.792C55.4934 102.781 57.8173 100.46 57.814 97.5969C57.8107 94.7342 55.4923 92.432 52.6247 92.4437C49.7571 92.4554 47.4441 94.7765 47.4474 97.6392C47.4507 100.502 49.7691 102.804 52.6367 102.792Z" fill="#2792D0"/>
</g>
</svg>
